PathFileType	4	(X/Y/Z)	F:\PHD\Matlab_Output_Files\Ahelaos\HopStudy\HopDistance\Right\HDR_3\HDR_3.trc
DataRate	CameraRate	NumFrames	NumMarkers	Units	OrigDataRate	OrigDataStartFrame	OrigNumFrames
100.000000	100.000000	9	46	m	100.000000	24	195
Frame#	Times			LFHD			RFHD			LBHD			RBHD			C7			T10			CLAV			STRN			RBAK			LSHO			LELB			LWRA			LWRB			LFIN			RSHO			RELB			RWRA			RWRB			RFIN			LASI			RASI			SACR			RPSI			LPSI			LTHI			LTHI2			LTHI3			LKNE			LTIB			LTIB2			LTIB3			LANK			LHEE			LTOE			LLatFoot			RTHI			RTHI2			RTHI3			RKNE			RTIB			RTIB2			RTIB3			RANK			RHEE			RTOE			RLatFoot
		X1	Y1	Z1	X2	Y2	Z2	X3	Y3	Z3	X4	Y4	Z4	X5	Y5	Z5	X6	Y6	Z6	X7	Y7	Z7	X8	Y8	Z8	X9	Y9	Z9	X10	Y10	Z10	X11	Y11	Z11	X12	Y12	Z12	X13	Y13	Z13	X14	Y14	Z14	X15	Y15	Z15	X16	Y16	Z16	X17	Y17	Z17	X18	Y18	Z18	X19	Y19	Z19	X20	Y20	Z20	X21	Y21	Z21	X22	Y22	Z22	X23	Y23	Z23	X24	Y24	Z24	X25	Y25	Z25	X26	Y26	Z26	X27	Y27	Z27	X28	Y28	Z28	X29	Y29	Z29	X30	Y30	Z30	X31	Y31	Z31	X32	Y32	Z32	X33	Y33	Z33	X34	Y34	Z34	X35	Y35	Z35	X36	Y36	Z36	X37	Y37	Z37	X38	Y38	Z38	X39	Y39	Z39	X40	Y40	Z40	X41	Y41	Z41	X42	Y42	Z42	X43	Y43	Z43	X44	Y44	Z44	X45	Y45	Z45	X46	Y46	Z46

24	0.24	-0.87429	1.6374	0.21824	-0.87196	1.6274	0.33162	-1.0289	1.7381	0.22225	-1.011	1.7097	0.35069	-1.1757	1.5965	0.27644	-1.2977	1.2901	0.24775	-1.063	1.4794	0.26663	-1.0723	1.3167	0.23981	-1.2492	1.4911	0.39391	-1.1509	1.5789	0.10524	-1.2915	1.2571	-0.029521	-1.192	0.96794	-0.024168	-1.2476	0.95773	-0.075357	-1.1882	0.90333	-0.074486	-1.1072	1.5264	0.42675	-1.2416	1.1915	0.53896	-1.1368	0.91143	0.5019	-1.1968	0.89256	0.54455	-1.1381	0.83918	0.54751	-1.1261	1.0711	0.10206	-1.093	1.0599	0.33685	-1.3041	1.1014	0.2291	-1.2865	1.1165	0.28856	-1.2987	1.1252	0.18013	-1.149	0.75046	0.030155	-1.0709	0.81231	0.011882	-1.0681	0.72235	0.0082871	-1.0125	0.5731	0.015306	-1.1886	0.52122	0.023723	-1.1564	0.46415	0.019589	-1.2155	0.46414	0.028073	-1.3671	0.37835	0.073695	-1.3881	0.40699	0.11292	-1.331	0.22609	0.076449	-1.4071	0.27249	0.05723	-1.1306	0.76388	0.38174	-1.2272	0.74115	0.37597	-1.1615	0.68913	0.37098	-1.1693	0.52032	0.33442	-1.1838	0.31904	0.32251	-1.2485	0.31987	0.3354	-1.2227	0.27334	0.3192	-1.2454	0.10239	0.2701	-1.2983	0.10687	0.22081	-1.1176	0.049803	0.25991	-1.199	0.029709	0.28548
25	0.25	-0.87289	1.6373	0.21754	-0.87071	1.6272	0.33165	-1.0273	1.7376	0.22181	-1.0097	1.7095	0.35067	-1.1742	1.5964	0.27628	-1.2971	1.2903	0.24794	-1.062	1.479	0.26655	-1.0722	1.3166	0.24005	-1.2486	1.4916	0.39453	-1.1493	1.5785	0.10485	-1.2905	1.2569	-0.029028	-1.1918	0.96756	-0.023963	-1.2472	0.95746	-0.075198	-1.1878	0.90297	-0.07437	-1.106	1.5262	0.42682	-1.2414	1.1916	0.53892	-1.1371	0.91133	0.50209	-1.1972	0.89251	0.54466	-1.1386	0.83909	0.54769	-1.126	1.0709	0.10226	-1.0926	1.0598	0.33686	-1.3038	1.1014	0.22948	-1.286	1.1166	0.28889	-1.2986	1.1253	0.18049	-1.1489	0.75039	0.030367	-1.0708	0.81233	0.012391	-1.0681	0.72223	0.0086325	-1.0129	0.57307	0.016129	-1.1894	0.52359	0.025167	-1.1581	0.466	0.021032	-1.2172	0.46726	0.029746	-1.3697	0.38413	0.076232	-1.3903	0.41355	0.11538	-1.3363	0.23144	0.079638	-1.4115	0.27944	0.060786	-1.13	0.76378	0.38169	-1.2267	0.7411	0.37609	-1.161	0.68903	0.37078	-1.1687	0.52016	0.33396	-1.1831	0.31904	0.32203	-1.2477	0.31983	0.33533	-1.222	0.27345	0.31887	-1.2452	0.10243	0.26991	-1.2983	0.10684	0.22077	-1.1177	0.050034	0.25937	-1.1991	0.030841	0.28567
26	0.26	-0.87183	1.6372	0.21686	-0.86954	1.6269	0.33162	-1.0257	1.7373	0.22159	-1.0085	1.7091	0.35027	-1.1731	1.5963	0.27612	-1.2963	1.2903	0.24829	-1.061	1.4783	0.266	-1.0717	1.3163	0.24006	-1.2474	1.4917	0.39412	-1.1478	1.5783	0.10489	-1.2894	1.2561	-0.028856	-1.191	0.9671	-0.023704	-1.2464	0.95725	-0.074942	-1.1872	0.90271	-0.074195	-1.1044	1.5258	0.4264	-1.2411	1.1917	0.53887	-1.1373	0.91119	0.50227	-1.1976	0.89251	0.54478	-1.139	0.83894	0.54794	-1.126	1.0703	0.10241	-1.0921	1.0598	0.33696	-1.3035	1.1014	0.22982	-1.2854	1.1167	0.28917	-1.2985	1.1253	0.18082	-1.1489	0.75021	0.030637	-1.0706	0.81226	0.012907	-1.068	0.72205	0.0089819	-1.0132	0.57293	0.01691	-1.1902	0.52617	0.026459	-1.1598	0.46803	0.022317	-1.2193	0.46978	0.031555	-1.3726	0.38987	0.078725	-1.3924	0.41939	0.11758	-1.3414	0.23666	0.082515	-1.416	0.28552	0.063682	-1.1295	0.7636	0.38166	-1.2262	0.74086	0.3762	-1.1604	0.68884	0.37058	-1.1681	0.52021	0.33357	-1.1824	0.31898	0.32147	-1.2469	0.31981	0.33522	-1.2214	0.27341	0.31843	-1.2449	0.10249	0.26979	-1.2982	0.10675	0.22066	-1.1178	0.050214	0.25907	-1.1991	0.031252	0.2855
27	0.27	-0.87008	1.6364	0.21888	-0.86819	1.6265	0.3318	-1.0243	1.7366	0.22133	-1.0072	1.7087	0.34991	-1.1717	1.5959	0.27598	-1.2948	1.29	0.2481	-1.0597	1.4782	0.26642	-1.071	1.3156	0.24024	-1.246	1.4917	0.39388	-1.1469	1.5782	0.10519	-1.2881	1.2558	-0.028797	-1.1903	0.96681	-0.023737	-1.2456	0.95694	-0.074681	-1.1865	0.9024	-0.073877	-1.1037	1.5258	0.42641	-1.2407	1.1918	0.53886	-1.1377	0.9109	0.50243	-1.1979	0.89269	0.54518	-1.1395	0.8388	0.54821	-1.126	1.07	0.10256	-1.0918	1.0594	0.33687	-1.3032	1.1015	0.23028	-1.2853	1.1168	0.28969	-1.2982	1.1253	0.18118	-1.149	0.74993	0.031034	-1.0706	0.81213	0.013443	-1.0681	0.72188	0.0094727	-1.0134	0.57286	0.017532	-1.1911	0.52821	0.027703	-1.1616	0.47007	0.024191	-1.2207	0.47299	0.0331	-1.3752	0.39507	0.081106	-1.3945	0.4256	0.11989	-1.3462	0.24162	0.085408	-1.4199	0.2916	0.066004	-1.1288	0.76337	0.38158	-1.2257	0.74066	0.3763	-1.1596	0.68863	0.37036	-1.1672	0.52039	0.33323	-1.1818	0.31899	0.32099	-1.2462	0.31983	0.33481	-1.2208	0.2733	0.31799	-1.2447	0.10251	0.26953	-1.2983	0.10679	0.22058	-1.1178	0.050379	0.25875	-1.199	0.031521	0.28522
28	0.28	-0.8684	1.6359	0.21907	-0.86692	1.6261	0.33181	-1.0226	1.736	0.22086	-1.0059	1.7085	0.35	-1.1701	1.5957	0.27578	-1.2951	1.2906	0.24859	-1.0586	1.4776	0.26612	-1.0704	1.3149	0.24009	-1.245	1.4917	0.39411	-1.1449	1.5778	0.10484	-1.2871	1.2555	-0.028876	-1.1896	0.96658	-0.023723	-1.2451	0.95684	-0.074497	-1.1857	0.90183	-0.073569	-1.1026	1.5254	0.42635	-1.2404	1.1918	0.53882	-1.1379	0.91129	0.50326	-1.1983	0.89273	0.54541	-1.1401	0.83859	0.54842	-1.1261	1.0698	0.10275	-1.0914	1.0591	0.33677	-1.3028	1.1015	0.23076	-1.2848	1.1169	0.29012	-1.2979	1.1252	0.18152	-1.1492	0.74966	0.031477	-1.0707	0.81191	0.013982	-1.0682	0.72158	0.0099281	-1.0137	0.5726	0.018194	-1.1918	0.5302	0.028966	-1.1637	0.47149	0.026063	-1.2223	0.47562	0.034828	-1.3778	0.40043	0.083471	-1.3967	0.4312	0.12153	-1.3513	0.24645	0.088365	-1.4241	0.29754	0.069251	-1.1282	0.76322	0.38152	-1.2251	0.74044	0.37634	-1.1589	0.68846	0.37011	-1.1663	0.5205	0.33279	-1.181	0.31904	0.32044	-1.2455	0.31967	0.33427	-1.2202	0.27324	0.31763	-1.2445	0.10252	0.2693	-1.298	0.10684	0.22042	-1.1177	0.050514	0.25838	-1.1988	0.032111	0.28518
29	0.29	-0.86676	1.6351	0.21818	-0.86547	1.6258	0.33201	-1.0208	1.7354	0.22014	-1.0046	1.7081	0.34958	-1.1688	1.5954	0.27541	-1.2943	1.2906	0.24877	-1.0575	1.4769	0.26602	-1.0695	1.3147	0.23992	-1.2447	1.4919	0.39429	-1.1436	1.5776	0.10495	-1.2862	1.2556	-0.028899	-1.1883	0.96649	-0.02315	-1.2439	0.95646	-0.074676	-1.1847	0.90156	-0.073384	-1.1011	1.5251	0.42615	-1.2399	1.1918	0.53874	-1.1383	0.91052	0.50289	-1.1986	0.89268	0.54556	-1.1406	0.8382	0.54853	-1.1263	1.0694	0.10284	-1.091	1.0588	0.33673	-1.3025	1.1015	0.2312	-1.2844	1.1169	0.2906	-1.2975	1.1251	0.18183	-1.1494	0.74926	0.032085	-1.0709	0.81151	0.014973	-1.0683	0.72111	0.010484	-1.0143	0.57207	0.019132	-1.1925	0.53222	0.030197	-1.1647	0.47306	0.02764	-1.2236	0.47857	0.036057	-1.3802	0.40558	0.085946	-1.3982	0.43672	0.12439	-1.3558	0.25117	0.091438	-1.4281	0.30335	0.072516	-1.1275	0.76301	0.38142	-1.2243	0.74012	0.37631	-1.1582	0.68827	0.36984	-1.1653	0.52053	0.33234	-1.1802	0.31897	0.31991	-1.2447	0.31975	0.33395	-1.2195	0.27321	0.31722	-1.2442	0.10252	0.26902	-1.2982	0.10683	0.22023	-1.1177	0.05063	0.25806	-1.1987	0.032351	0.28495
30	0.3	-0.86536	1.634	0.21832	-0.86411	1.6251	0.33206	-1.0193	1.7347	0.22015	-1.0034	1.7076	0.34915	-1.1671	1.595	0.27505	-1.2934	1.2905	0.24904	-1.0561	1.4768	0.26635	-1.0682	1.314	0.23993	-1.2427	1.4914	0.39376	-1.1422	1.5774	0.10506	-1.2855	1.2556	-0.028788	-1.1869	0.96623	-0.022901	-1.2425	0.9563	-0.074435	-1.1838	0.90151	-0.073313	-1.1	1.5247	0.42589	-1.2396	1.1917	0.53872	-1.1386	0.91026	0.50311	-1.1991	0.89255	0.54564	-1.1414	0.83778	0.54852	-1.1263	1.0684	0.10311	-1.0906	1.0585	0.33679	-1.3024	1.1015	0.2316	-1.2841	1.1169	0.2909	-1.2974	1.1251	0.18217	-1.1498	0.74861	0.032768	-1.0711	0.81086	0.015597	-1.0686	0.72071	0.010941	-1.0148	0.57135	0.019779	-1.1937	0.53455	0.031783	-1.1661	0.47462	0.029298	-1.2251	0.48011	0.037657	-1.3824	0.41071	0.0884	-1.3999	0.44215	0.12676	-1.3598	0.25561	0.09509	-1.4319	0.30902	0.075302	-1.1267	0.7629	0.38133	-1.2234	0.73991	0.37633	-1.1552	0.68738	0.36918	-1.1643	0.52012	0.33179	-1.1794	0.31868	0.3193	-1.2437	0.31963	0.33362	-1.2186	0.27326	0.31685	-1.2439	0.10262	0.26889	-1.298	0.10688	0.2201	-1.1175	0.05071	0.25765	-1.1986	0.032489	0.28476
31	0.31	-0.86376	1.6336	0.21851	-0.8627	1.6246	0.33234	-1.018	1.7339	0.21969	-1.002	1.7072	0.349	-1.1657	1.5946	0.27492	-1.2926	1.2903	0.24915	-1.0548	1.4763	0.26634	-1.0675	1.3134	0.23991	-1.2414	1.4913	0.39371	-1.1406	1.5771	0.10507	-1.2839	1.2554	-0.028308	-1.1861	0.96593	-0.023043	-1.2416	0.95621	-0.074195	-1.183	0.90123	-0.073388	-1.0988	1.5241	0.42568	-1.2392	1.1916	0.53873	-1.1389	0.90989	0.50344	-1.1996	0.89224	0.54566	-1.142	0.83745	0.54878	-1.1263	1.0678	0.10314	-1.0903	1.0584	0.33681	-1.3022	1.1014	0.23199	-1.2838	1.1168	0.29135	-1.2971	1.1248	0.18236	-1.15	0.74793	0.033402	-1.0715	0.81014	0.015971	-1.0689	0.72007	0.011549	-1.0153	0.57089	0.020398	-1.1943	0.53625	0.032696	-1.1676	0.47626	0.03101	-1.2266	0.48217	0.038875	-1.3844	0.4153	0.090445	-1.4015	0.44745	0.129	-1.3642	0.25985	0.098162	-1.4356	0.31452	0.078436	-1.126	0.76275	0.38136	-1.2226	0.7395	0.3763	-1.1543	0.6871	0.36908	-1.1632	0.51987	0.33129	-1.1788	0.31839	0.31867	-1.2429	0.31976	0.33345	-1.2179	0.27315	0.31648	-1.2436	0.10261	0.26865	-1.2978	0.10692	0.22002	-1.1174	0.050795	0.25762	-1.1986	0.032544	0.28468
32	0.32	-0.86204	1.633	0.21794	-0.86125	1.6241	0.33253	-1.0161	1.7331	0.21918	-1.0006	1.7067	0.3488	-1.164	1.5942	0.27464	-1.2919	1.2903	0.24931	-1.0538	1.4752	0.26596	-1.0668	1.313	0.23968	-1.2406	1.4912	0.39359	-1.1391	1.5768	0.10512	-1.2829	1.2552	-0.028419	-1.1846	0.96593	-0.022665	-1.2404	0.95608	-0.073987	-1.1815	0.9009	-0.073066	-1.0973	1.5235	0.42551	-1.2387	1.1915	0.53871	-1.1392	0.90954	0.50368	-1.2	0.89186	0.54568	-1.1424	0.83624	0.5484	-1.1267	1.0671	0.1031	-1.09	1.0581	0.33684	-1.302	1.1011	0.2325	-1.284	1.117	0.29196	-1.2965	1.1243	0.1826	-1.1502	0.74733	0.034084	-1.0722	0.80945	0.016493	-1.0695	0.71914	0.012283	-1.0158	0.57031	0.021129	-1.1949	0.53786	0.034062	-1.1692	0.47753	0.0326	-1.2282	0.48453	0.040348	-1.3865	0.42015	0.092882	-1.4032	0.45269	0.13135	-1.3683	0.26445	0.10152	-1.439	0.31973	0.081782	-1.1252	0.76262	0.3815	-1.2218	0.73921	0.37636	-1.1538	0.68695	0.36919	-1.1618	0.52003	0.33118	-1.1776	0.31845	0.31854	-1.2418	0.32001	0.33331	-1.2171	0.27309	0.31616	-1.2434	0.10262	0.26849	-1.2976	0.10709	0.22003	-1.1173	0.050807	0.25708	-1.1984	0.032614	0.28445
